<?xml version="1.0" encoding="UTF-8"?>
<svg width="262px" height="36px" viewBox="0 0 262 36" version="1.1" xmlns="http://www.w3.org/2000/svg" xmlns:xlink="http://www.w3.org/1999/xlink">
    <title>distribution_logo</title>
    <g id="distribution_logo" stroke="none" stroke-width="1" fill="none" fill-rule="evenodd">
        <g id="编组-12" transform="translate(20.000000, 4.000000)" fill="#0080FF">
            <g id="编组">
                <path d="M48.2078232,0 L48.2078232,3.3458412 L39.9745872,3.3458412 L39.9745872,6.55931863 L61.3755111,6.55931863 L61.3755111,3.3458412 L53.142275,3.3458412 L53.142275,0 L48.2078232,0 Z M36.6201526,0 L31.401057,12.119722 L33.9128408,15.5135591 L33.9128408,28 L37.6805164,28 L37.6805164,14.6361335 L35.7139552,11.6660105 L40.3878282,0 L36.6201526,0 Z M16.9583005,0 L16.9583005,2.85575777 L8.31671152,2.85575777 L8.31671152,6.14047916 L15.0007636,6.14047916 L9.98584447,11.0041916 L9.98584447,14.631259 L12.8375463,14.631259 L12.8375463,22.541963 L9.98584447,28 L14.3028788,28 L16.6544799,23.51988 L16.6544799,14.631259 L29.2686729,14.631259 L29.2686729,14.2592905 L27.1656181,11.2396716 L14.6273802,11.2456711 L20.069829,6.14047916 L29.971446,6.14047916 L29.971446,2.85575777 L21.8927523,2.85575777 L21.8927523,0 L16.9583005,0 Z M4.60844635,0 L2.0410123,3.95516452 L0,7.09889786 L4.38659719,11.5441458 L0.210192682,17.9771002 L4.261008,24.3391855 L0,24.3391855 L0,28 L8.72807251,28 L8.72807251,24.3391855 L4.65883243,17.683875 L8.83523694,11.2509207 L4.44863975,6.80529776 L8.86682224,0 L4.60844635,0 Z M41.4854176,8.41391132 L41.4854176,11.6277637 L60.3817021,11.6277637 L60.3817021,11.2554203 L58.4102526,8.41391132 L41.4854176,8.41391132 Z M41.4854176,13.1666332 L41.4854176,16.3804856 L60.3817021,16.3804856 L60.3817021,16.0081422 L58.4102526,13.1666332 L41.4854176,13.1666332 Z M20.2807737,16.2679951 L20.2807737,28 L29.971446,28 L29.971446,24.3391855 L24.0980834,24.3391855 L24.0980834,16.2679951 L20.2807737,16.2679951 Z M41.4854176,18.285324 L41.4854176,21.5014262 L56.095877,21.5014262 L56.095877,24.6811565 L41.4854176,24.6811565 L41.4854176,28 L59.8646807,28 L59.8646807,24.9530085 L59.8646807,18.285324 L41.4854176,18.285324 Z" id="Fill-1"></path>
                <g transform="translate(66.991453, 1.050023)">
                    <path d="M17.9340608,0 L17.9340608,24.0110883 C17.9340608,25.0542499 17.0857697,25.8998031 16.0396945,25.8998031 L1.89436625,25.8998031 C0.848291039,25.8998031 0,25.0542499 0,24.0110883 L0,0 L4.19896544,0 L4.19896544,20.6356247 C4.19896544,21.2306992 4.68252141,21.7129083 5.27888204,21.7129083 L12.6551787,21.7129083 C13.2519154,21.7129083 13.7354713,21.2306992 13.7354713,20.6356247 L13.7354713,0 L17.9340608,0 Z" id="Fill-2"></path>
                    <path d="M26.709624,21.7129083 L34.1111138,21.7129083 C34.7078504,21.7129083 35.1914064,21.2306992 35.1914064,20.6356247 L35.1914064,5.26417848 C35.1914064,4.66910396 34.7078504,4.18689486 34.1111138,4.18689486 L26.709624,4.18689486 C26.1128874,4.18689486 25.6293314,4.66910396 25.6293314,5.26417848 L25.6293314,20.6356247 C25.6293314,21.2306992 26.1128874,21.7129083 26.709624,21.7129083 M39.3903718,1.88908976 L39.3903718,24.0110883 C39.3903718,25.0542499 38.5424568,25.8998031 37.4963816,25.8998031 L23.3247322,25.8998031 C22.278657,25.8998031 21.430742,25.0542499 21.430742,24.0110883 L21.430742,1.88908976 C21.430742,0.845553279 22.278657,0 23.3247322,0 L37.4963816,0 C38.5424568,0 39.3903718,0.845553279 39.3903718,1.88908976" id="Fill-4"></path>
                    <path d="M60.8539024,12.5975065 L60.8539024,24.0111633 C60.8539024,25.0543249 60.0059874,25.8998781 58.9595361,25.8998781 L42.8942725,25.8998781 L42.8942725,21.7129833 L55.5569716,21.7129833 C56.1533322,21.7129833 56.6372642,21.2307742 56.6372642,20.6356997 L56.655313,15.9729701 C56.655313,15.3782706 56.171381,14.8960615 55.5750203,14.8960615 L44.7871347,14.8960615 C43.7410595,14.8960615 42.8750958,14.0501332 42.8750958,13.0069717 L42.8750958,1.88878979 C42.8750958,0.845628273 43.7230108,7.49936371e-05 44.769086,7.49936371e-05 L60.8539024,7.49936371e-05 L60.8539024,4.18696986 L48.1539778,4.18696986 C47.5576172,4.18696986 47.0736852,4.66917895 47.0736852,5.26425348 L47.0736852,9.63113307 C47.0736852,10.2262076 47.5576172,10.7084167 48.1539778,10.7084167 L58.9595361,10.7084167 C60.0059874,10.7084167 60.8539024,11.5543449 60.8539024,12.5975065" id="Fill-6"></path>
                </g>
            </g>
            <g id="编组-3备份" transform="translate(134.850581, 0.000000)">
                <path d="M81.2601319,23.2444389 C80.9482446,23.5295595 80.4847587,23.6723611 79.8696744,23.6723611 L69.2394335,23.6723611 C68.3872955,23.6723611 67.7746251,23.483728 67.4019052,23.1059793 C67.0282198,22.7291955 66.8418599,22.1189119 66.8418599,21.2765757 L66.8418599,6.77015809 C66.8418599,6.20860067 66.9253839,5.75028491 67.0914663,5.39472836 C67.2585143,5.03965425 67.5206735,4.78106767 67.8760126,4.61800375 C68.2323174,4.4559047 68.6861473,4.37485517 69.2394335,4.37485517 L79.5669602,4.37485517 C80.1907349,4.37485517 80.6537379,4.51283234 80.9564521,4.78975155 C81.2601319,5.06570588 81.4112476,5.42753412 81.4112476,5.8757187 C81.4112476,6.33162227 81.2601319,6.69779245 80.9564521,6.97422922 C80.6537379,7.25066599 80.1907349,7.3891256 79.5669602,7.3891256 L70.75397,7.3891256 L70.75397,12.1281106 L78.8688346,12.1281106 C79.4660555,12.1281106 79.9116778,12.2617458 80.2057016,12.5294987 C80.5002083,12.7972516 80.6469788,13.150396 80.6469788,13.5889318 C80.6469788,14.0279501 80.5026222,14.3854364 80.2129436,14.6618731 C79.9222993,14.9383099 79.4752286,15.0762871 78.8688346,15.0762871 L70.75397,15.0762871 L70.75397,20.5659451 L79.8696744,20.5659451 C80.4847587,20.5659451 80.9482446,20.7082642 81.2601319,20.9933848 C81.5715365,21.2785055 81.7279629,21.6581839 81.7279629,22.1319377 C81.7279629,22.5888061 81.5715365,22.9593182 81.2601319,23.2444389 M86.3268951,0 L69.0647961,0 C64.1290456,0 60.1285192,4.15075862 60.1285192,9.27089655 L60.1285192,26.1085517 C60.1285192,27.1527586 60.9446303,28 61.9515086,28 L79.2140728,28 C84.1488928,28 88.1494192,23.8492414 88.1494192,18.7286207 L88.1494192,1.89144828 C88.1494192,0.846758621 87.3337734,0 86.3268951,0" id="Fill-3"></path>
                <path d="M46.0409957,1.16666667 C50.0049868,1.16666667 52.779539,4.01108046 52.779539,8.00783908 L52.779539,20.393977 C52.779539,24.3907356 50.0049868,27.2356322 46.0409957,27.2356322 C42.0770046,27.2356322 39.3024524,24.3907356 39.3024524,20.393977 L39.3024524,8.00783908 C39.3024524,4.01108046 42.0770046,1.16666667 46.0409957,1.16666667 Z M28.9302747,1.27456322 C33.0377522,1.27456322 35.7040857,3.93890805 35.7040857,8.00808046 C35.7040857,9.91594253 35.2359435,11.2483563 33.9382859,12.9404253 L24.3174549,25.5071149 L35.7040857,25.5071149 L35.7040857,27.1272529 L22.1197467,27.1272529 L22.1197467,25.5071149 L32.4251573,12.0048391 C33.4339097,10.7081494 33.8658181,9.48387356 33.8658181,8.00808046 C33.8658181,4.9473908 32.0289998,2.89518391 28.9302747,2.89518391 C26.2629749,2.89518391 23.993282,4.40718391 23.993282,8.00808046 L22.1554975,8.00808046 C22.1554975,4.19090805 24.6778616,1.27456322 28.9302747,1.27456322 Z M2.05373872,1.38284598 L9.2604243,23.5984322 L16.4671099,1.38284598 L18.5208486,1.38284598 L10.0889733,27.0197425 L8.43187528,27.0197425 L0,1.38284598 L2.05373872,1.38284598 Z M46.0409957,2.7868046 C42.834052,2.7868046 41.1402369,5.16294253 41.1402369,8.18790805 L41.1402369,20.213908 C41.1402369,23.2388736 42.834052,25.6154943 46.0409957,25.6154943 C49.2479394,25.6154943 50.9417545,23.2388736 50.9417545,20.213908 L50.9417545,8.18790805 C50.9417545,5.16294253 49.2479394,2.7868046 46.0409957,2.7868046 Z" id="形状结合"></path>
            </g>
        </g>
    </g>
</svg>